<svg xmlns="http://www.w3.org/2000/svg" width="37.418" height="37.418" viewBox="0 0 37.418 37.418"><defs><style>.a{opacity:0.6;}.b{fill:#fff;}</style></defs><g class="a"><path class="b" d="M214.162,210.581A3.581,3.581,0,1,1,210.581,207,3.581,3.581,0,0,1,214.162,210.581Zm0,0" transform="translate(-191.872 -191.872)"/><path class="b" d="M152.667,137.96a3.557,3.557,0,0,0-2.039-2.039,5.944,5.944,0,0,0-1.995-.37c-1.133-.052-1.473-.063-4.341-.063s-3.208.011-4.341.063a5.948,5.948,0,0,0-1.995.37,3.559,3.559,0,0,0-2.039,2.039,5.945,5.945,0,0,0-.37,1.995c-.052,1.133-.063,1.472-.063,4.341s.011,3.208.063,4.341a5.943,5.943,0,0,0,.37,1.995,3.558,3.558,0,0,0,2.039,2.039,5.936,5.936,0,0,0,1.995.37c1.133.052,1.472.063,4.341.063s3.209-.011,4.341-.063a5.937,5.937,0,0,0,1.995-.37,3.558,3.558,0,0,0,2.039-2.039,5.949,5.949,0,0,0,.37-1.995c.052-1.133.063-1.473.063-4.341s-.011-3.208-.063-4.341A5.936,5.936,0,0,0,152.667,137.96Zm-8.375,11.852a5.517,5.517,0,1,1,5.517-5.517A5.516,5.516,0,0,1,144.292,149.812Zm5.735-9.962a1.289,1.289,0,1,1,1.289-1.289A1.289,1.289,0,0,1,150.027,139.85Zm0,0" transform="translate(-125.583 -125.587)"/><path class="b" d="M18.709,0A18.709,18.709,0,1,0,37.418,18.709,18.711,18.711,0,0,0,18.709,0ZM29.387,23.138a7.882,7.882,0,0,1-.5,2.608,5.493,5.493,0,0,1-3.142,3.142,7.887,7.887,0,0,1-2.608.5c-1.146.052-1.512.065-4.429.065s-3.284-.013-4.429-.065a7.887,7.887,0,0,1-2.608-.5A5.493,5.493,0,0,1,8.53,25.746a7.88,7.88,0,0,1-.5-2.608c-.053-1.146-.065-1.512-.065-4.429s.012-3.284.065-4.429a7.883,7.883,0,0,1,.5-2.608A5.5,5.5,0,0,1,11.672,8.53a7.889,7.889,0,0,1,2.608-.5c1.146-.052,1.512-.065,4.429-.065s3.284.013,4.429.065a7.891,7.891,0,0,1,2.608.5,5.495,5.495,0,0,1,3.142,3.142,7.881,7.881,0,0,1,.5,2.608c.052,1.146.065,1.512.065,4.429S29.44,21.992,29.387,23.138Zm0,0"/></g></svg>