<svg xmlns="http://www.w3.org/2000/svg" width="113" height="113" viewBox="0 0 113 113"><defs><style>.a{fill:#031126;}.b{fill:#fff;}</style></defs><g transform="translate(-86 -112)"><circle class="a" cx="56.5" cy="56.5" r="56.5" transform="translate(86 112)"/><g transform="translate(-203.507 -87.93)"><path class="b" d="M26.079-41.947c-7.307.8-17.19,2.28-23.641-2.056C-.52-45.992-3.288-41.208-.35-39.233c6.411,4.309,15.33,3.944,23.037,3.172-1.408,7.527-2.558,15.1-3.388,22.714-.4,3.7-.153,8.668-2.84,11.574C12.259,2.772,9.185-3.538,8-7.024c-1.138-3.348-6.476-1.91-5.327,1.469C4.048-1.51,6.1,3.14,10.4,4.782c4.336,1.658,8.914-.563,11.331-4.32,3.085-4.8,2.792-11.417,3.447-16.866.889-7.4,2.11-14.743,3.569-22.046C29.057-40.023,28-42.157,26.079-41.947Z" transform="translate(324 276)"/><path class="b" d="M30.882-41.039c-3.2,5.935-4.494,12.377-5.691,18.949a97.757,97.757,0,0,1-2.182,10.043c-.522,1.778-3.171,10.724-5.884,7.019-1.637-2.236-1.944-6.761-2.776-9.42-1.07-3.422-2.267-6.8-3.634-10.118a77.844,77.844,0,0,0-10.183-18c-2.139-2.777-6.941-.029-4.77,2.788A81.527,81.527,0,0,1,8.194-15.541c1.3,3.9,2.138,7.969,3.519,11.828C12.7-.956,14.432,1.7,17.569,2.132c7.277.991,10.15-10,11.422-15.179,2.076-8.458,2.456-17.4,6.661-25.2C37.339-41.38,32.571-44.173,30.882-41.039Z" transform="translate(333.609 278.288)"/></g></g></svg>