<svg xmlns="http://www.w3.org/2000/svg" width="37.609" height="37.609" viewBox="0 0 37.609 37.609"><defs><style>.a{fill:#fff;opacity:0.6;}</style></defs><path class="a" d="M18.8,0a18.8,18.8,0,1,0,18.8,18.8A18.807,18.807,0,0,0,18.8,0ZM27.39,14.662q.012.278.012.558A12.2,12.2,0,0,1,15.122,27.5h0a12.217,12.217,0,0,1-6.616-1.939,8.778,8.778,0,0,0,1.03.06A8.66,8.66,0,0,0,14.9,23.773a4.321,4.321,0,0,1-4.032-3,4.3,4.3,0,0,0,1.949-.074,4.317,4.317,0,0,1-3.463-4.231c0-.02,0-.037,0-.055a4.286,4.286,0,0,0,1.955.54A4.32,4.32,0,0,1,9.97,11.193a12.254,12.254,0,0,0,8.9,4.51,4.318,4.318,0,0,1,7.355-3.936,8.657,8.657,0,0,0,2.741-1.048,4.333,4.333,0,0,1-1.9,2.387,8.608,8.608,0,0,0,2.479-.68,8.771,8.771,0,0,1-2.153,2.235Zm0,0"/></svg>